HIERARCHY
ROOT joint_Root
{
	OFFSET 0.0 0.0 0.0
	CHANNELS 6 Xposition Yposition Zposition Zrotation Xrotation Yrotation 
	JOINT Hips
	{
		OFFSET 4.5925 91.4895 -427.239
		CHANNELS 6 Xposition Yposition Zposition Zrotation Xrotation Yrotation 
		JOINT Spine
		{
			OFFSET 15.7357 0.0 0.0
			CHANNELS 6 Xposition Yposition Zposition Zrotation Xrotation Yrotation 
			JOINT Chest
			{
				OFFSET 8.98455 -0.406207 0.0
				CHANNELS 6 Xposition Yposition Zposition Zrotation Xrotation Yrotation 
				JOINT Neck
				{
					OFFSET 16.3773 0.0 0.0
					CHANNELS 6 Xposition Yposition Zposition Zrotation Xrotation Yrotation 
					JOINT Head
					{
						OFFSET 6.45672 0.0 0.0
						CHANNELS 6 Xposition Yposition Zposition Zrotation Xrotation Yrotation 
						End Site
						{
							OFFSET 0.0 0.0 0.0
						}
					}
				}
				JOINT Shoulder_L
				{
					OFFSET 12.9942 -0.242716 4.98039
					CHANNELS 6 Xposition Yposition Zposition Zrotation Xrotation Yrotation 
					JOINT UpperArm_L
					{
						OFFSET 5.34809 0.0 0.0
						CHANNELS 6 Xposition Yposition Zposition Zrotation Xrotation Yrotation 
						JOINT LowerArm_L
						{
							OFFSET 24.3286 1.87007e-05 0.0
							CHANNELS 6 Xposition Yposition Zposition Zrotation Xrotation Yrotation 
							JOINT Hand_L
							{
								OFFSET 22.2916 0.0 0.0
								CHANNELS 6 Xposition Yposition Zposition Zrotation Xrotation Yrotation 
								End Site
								{
									OFFSET 0.0 0.0 0.0
								}
							}
						}
					}
				}
				JOINT Shoulder_R
				{
					OFFSET 12.9945 -0.242716 -4.98039
					CHANNELS 6 Xposition Yposition Zposition Zrotation Xrotation Yrotation 
					JOINT UpperArm_R
					{
						OFFSET -5.34813 0.0 0.0
						CHANNELS 6 Xposition Yposition Zposition Zrotation Xrotation Yrotation 
						JOINT LowerArm_R
						{
							OFFSET -24.3289 0.000322201 0.0
							CHANNELS 6 Xposition Yposition Zposition Zrotation Xrotation Yrotation 
							JOINT Hand_R
							{
								OFFSET -22.2915 -0.000108084 0.0
								CHANNELS 6 Xposition Yposition Zposition Zrotation Xrotation Yrotation 
								End Site
								{
									OFFSET 0.0 0.0 0.0
								}
							}
						}
					}
				}
			}
		}
		JOINT UpperLeg_L
		{
			OFFSET -2.19248 -6.46944 0.0
			CHANNELS 6 Xposition Yposition Zposition Zrotation Xrotation Yrotation 
			JOINT LowerLeg_L
			{
				OFFSET 39.0811 0.0 -1.23785e-05
				CHANNELS 6 Xposition Yposition Zposition Zrotation Xrotation Yrotation 
				JOINT Foot_L
				{
					OFFSET 40.9854 0.0 -1.26872e-05
					CHANNELS 6 Xposition Yposition Zposition Zrotation Xrotation Yrotation 
					JOINT Toes_L
					{
						OFFSET 11.7543 0.0 0.0
						CHANNELS 6 Xposition Yposition Zposition Zrotation Xrotation Yrotation 
						End Site
						{
							OFFSET 0.0 0.0 0.0
						}
					}
				}
			}
		}
		JOINT UpperLeg_R
		{
			OFFSET -2.19251 6.46944 0.0
			CHANNELS 6 Xposition Yposition Zposition Zrotation Xrotation Yrotation 
			JOINT LowerLeg_R
			{
				OFFSET -39.0811 -0.00228153 -0.0401928
				CHANNELS 6 Xposition Yposition Zposition Zrotation Xrotation Yrotation 
				JOINT Foot_R
				{
					OFFSET -40.9854 0.0 0.0
					CHANNELS 6 Xposition Yposition Zposition Zrotation Xrotation Yrotation 
					JOINT Toes_R
					{
						OFFSET -11.7543 0.0 0.0
						CHANNELS 6 Xposition Yposition Zposition Zrotation Xrotation Yrotation 
						End Site
						{
							OFFSET 0.0 0.0 0.0
						}
					}
				}
			}
		}
	}
}
MOTION
Frames:	4
Frame Time:	0.0333333
0.000000 0.000000 0.000000 0.000000 0.000000 -0.000000 -3.748150 87.977000 32.380300 -90.263900 6.272890 -175.077000 15.735700 0.000005 -0.000001 91.957700 79.702800 -93.063000 8.984550 -0.406207 -0.000000 12.824300 0.647933 -2.283400 16.377300 -0.000001 -0.000001 2.135630 -1.838850 0.785930 6.456720 -0.000001 -0.000000 -2.399230 -1.286540 1.349770 12.994200 -0.242716 4.980390 -90.834400 2.728790 -72.990900 5.348090 -0.000007 -0.000001 -66.489300 28.592200 -10.443500 24.328600 0.000019 0.000005 7.141530 19.907600 -20.201800 22.291600 -0.000001 0.000005 9.855890 5.172510 3.400930 12.994500 -0.242716 -4.980390 88.526900 8.684780 -80.334700 -5.348130 -0.000001 -0.000004 -58.580600 24.641400 -13.900600 -24.328900 0.000322 -0.000009 -0.873530 -1.170400 -36.700900 -22.291500 -0.000108 -0.000004 17.961600 5.411120 -3.301610 -2.192480 -6.469440 -0.000000 -179.739000 -8.136020 -18.223600 39.081100 -0.000007 -0.000012 -0.239507 0.242949 44.591800 40.985400 -0.000006 -0.000013 2.055910 2.130170 -71.903500 11.754300 -0.000000 0.000003 -0.000319 -0.002738 -16.679400 -2.192510 6.469440 -0.000001 174.343000 7.727650 161.996000 -39.081100 -0.002282 -0.040193 0.225490 -0.060696 74.738700 -40.985400 0.000008 0.000006 4.849410 0.203404 -48.952000 -11.754300 -0.000006 -0.000006 -0.018784 -0.160460 -23.126700
0.000000 0.000000 0.000000 0.000000 0.000000 -0.000000 -3.710560 88.407900 29.609600 -89.595700 5.369680 -175.396000 15.735700 0.000005 -0.000001 89.574500 79.796900 -90.405800 8.984550 -0.406207 -0.000000 12.638700 -0.185365 -1.641970 16.377300 -0.000001 -0.000001 2.250180 -1.846900 0.537262 6.456720 -0.000001 -0.000000 -2.266180 -1.139900 1.077470 12.994200 -0.242716 4.980390 -90.868400 2.843160 -73.008100 5.348090 -0.000007 -0.000001 -64.760800 28.070400 -12.758100 24.328600 0.000019 0.000005 7.541950 19.276800 -21.852800 22.291600 -0.000001 0.000005 11.608800 5.180940 3.192130 12.994500 -0.242716 -4.980390 88.445600 8.922170 -80.075400 -5.348130 -0.000001 -0.000004 -59.664200 25.958500 -12.063200 -24.328900 0.000322 -0.000009 -0.114113 -0.161556 -34.949300 -22.291500 -0.000108 -0.000004 16.645300 5.399630 -2.923670 -2.192480 -6.469440 -0.000000 -178.981000 -8.021850 -15.634700 39.081100 -0.000007 -0.000012 -0.258693 0.276465 43.098500 40.985400 -0.000006 -0.000013 2.301260 2.836080 -73.261900 11.754300 -0.000000 0.000003 -0.000372 -0.003110 -16.692600 -2.192510 6.469440 -0.000001 175.947000 9.937510 158.873000 -39.081100 -0.002282 -0.040193 0.207339 -0.056290 74.595900 -40.985400 0.000008 0.000006 5.751090 -1.477700 -52.226500 -11.754300 -0.000006 -0.000006 -0.017557 -0.153361 -22.834600
0.000000 0.000000 0.000000 0.000000 0.000000 -0.000000 -3.617510 89.012900 26.957900 -89.059000 4.555950 -175.809000 15.735700 0.000005 -0.000001 87.961700 79.907600 -88.501400 8.984550 -0.406207 -0.000000 12.403400 -0.733066 -0.999518 16.377300 -0.000001 -0.000001 2.385700 -2.041080 0.432474 6.456720 -0.000001 -0.000000 -2.243740 -1.133670 1.144230 12.994200 -0.242716 4.980390 -90.753100 2.491970 -73.179300 5.348090 -0.000007 -0.000001 -64.078200 26.931400 -15.035400 24.328600 0.000019 0.000005 8.078670 18.831600 -23.736800 22.291600 -0.000001 0.000005 12.857700 5.179560 3.226700 12.994500 -0.242716 -4.980390 88.386600 8.980900 -79.771800 -5.348130 -0.000001 -0.000004 -60.739600 27.108500 -9.827940 -24.328900 0.000322 -0.000009 0.596094 0.891967 -33.806200 -22.291500 -0.000108 -0.000004 15.544900 5.390870 -2.642630 -2.192480 -6.469440 -0.000000 -178.363000 -7.504170 -12.696200 39.081100 -0.000007 -0.000012 -0.254424 0.298669 40.426900 40.985400 -0.000006 -0.000013 2.276860 3.089690 -73.904300 11.754300 -0.000000 0.000003 -0.000306 -0.002645 -16.676000 -2.192510 6.469440 -0.000001 177.741000 11.691000 156.668000 -39.081100 -0.002282 -0.040193 0.166961 -0.058382 70.388600 -40.985400 0.000008 0.000006 6.064920 -1.966550 -55.436300 -11.754300 -0.000006 -0.000006 -0.017284 -0.151750 -22.768400
0.000000 0.000000 0.000000 0.000000 0.000000 -0.000000 -3.485080 89.629000 24.426400 -88.581200 3.844630 -176.256000 15.735700 0.000005 -0.000001 86.844600 80.026200 -87.105200 8.984550 -0.406207 -0.000000 12.150400 -1.098140 -0.404263 16.377300 -0.000001 -0.000001 2.385650 -2.250370 0.388131 6.456720 -0.000001 -0.000000 -2.208830 -1.187290 1.558590 12.994200 -0.242716 4.980390 -90.598200 1.999670 -73.342200 5.348090 -0.000007 -0.000001 -63.599400 25.992000 -17.137600 24.328600 0.000019 0.000005 8.305810 17.323100 -26.118700 22.291600 -0.000001 0.000005 13.371900 5.183610 3.126920 12.994500 -0.242716 -4.980390 88.328400 9.051600 -79.491000 -5.348130 -0.000001 -0.000004 -61.724300 28.132400 -7.450980 -24.328900 0.000322 -0.000009 0.823733 1.261330 -33.186200 -22.291500 -0.000108 -0.000004 14.941100 5.385950 -2.486080 -2.192480 -6.469440 -0.000000 -177.775000 -6.959700 -9.647410 39.081100 -0.000007 -0.000012 -0.246443 0.324969 37.175600 40.985400 -0.000006 -0.000013 2.146930 3.244280 -74.121800 11.754300 -0.000000 0.000003 -0.000266 -0.002350 -16.665400 -2.192510 6.469440 -0.000001 179.503000 13.070500 155.504000 -39.081100 -0.002282 -0.040193 0.122166 -0.061600 62.628200 -40.985400 0.000008 0.000006 5.476170 -1.351940 -57.889200 -11.754300 -0.000006 -0.000006 -0.018065 -0.156327 -22.956600
